<svg xmlns="http://www.w3.org/2000/svg" viewBox="0 0 512 512"><defs><style>.cls-1{fill:#9eb4b9;}</style></defs><title>bnf-img-1</title><g id="Слой_2" data-name="Слой 2"><g id="Capa_1" data-name="Capa 1"><path class="cls-1" d="M196,60a10,10,0,1,0,10,10A10,10,0,0,0,196,60Z"/><path class="cls-1" d="M256,140a10,10,0,0,1,0-20c3.54,0,7.28,1.81,10.82,5.23a10,10,0,0,0,13.91-14.37A38.63,38.63,0,0,0,266,101.65V90a10,10,0,0,0-20,0v11.72A30,30,0,0,0,256,160a10,10,0,0,1,0,20c-4.27,0-8.88-2.69-13-7.57a10,10,0,0,0-15.31,12.87,41.46,41.46,0,0,0,18.29,13V210a10,10,0,0,0,20,0V198.28A30,30,0,0,0,256,140Z"/><path class="cls-1" d="M472,146a40,40,0,0,0-40,40v71.27a40,40,0,0,0-38.28,10.45l-67.07,67.07A49.65,49.65,0,0,0,312,370.15V429H302a10,10,0,0,0-10,10v63a10,10,0,0,0,10,10H442a10,10,0,0,0,10-10V439a10,10,0,0,0-10-10H432v-4.72a10.07,10.07,0,0,1,2.93-7.07l62.42-62.42A49.68,49.68,0,0,0,512,319.43V186A40,40,0,0,0,472,146ZM432,492H312V449H432Zm60-172.57a29.81,29.81,0,0,1-8.79,21.22l-62.42,62.42A30.21,30.21,0,0,0,412,424.28V429H332V370.15a29.78,29.78,0,0,1,8.79-21.22l67.07-67.07a20,20,0,0,1,27.45-.77l.17.15c.23.2.44.4.66.62a20,20,0,0,1,0,28.28l-49.69,49.69A10,10,0,0,0,400.59,374l49.69-49.69A40,40,0,0,0,452,269.56V186a20,20,0,0,1,40,0Z"/><path class="cls-1" d="M210,429H200V370.15a49.64,49.64,0,0,0-14.65-35.36l-67.07-67.07A40,40,0,0,0,80,257.27V186a40,40,0,0,0-80,0V319.43a49.68,49.68,0,0,0,14.65,35.36l62.42,62.42A10.07,10.07,0,0,1,80,424.28V429H70a10,10,0,0,0-10,10v63a10,10,0,0,0,10,10H210a10,10,0,0,0,10-10V439A10,10,0,0,0,210,429ZM28.79,340.65A29.82,29.82,0,0,1,20,319.43V186a20,20,0,0,1,40,0v83.56a40,40,0,0,0,1.72,54.72l50,50a10,10,0,0,0,14.14-14.14l-50-50a20,20,0,0,1,0-28.27c.22-.22.43-.43.66-.62l.17-.15a20,20,0,0,1,27.45.77l67.07,67.07A29.78,29.78,0,0,1,180,370.15V429H100v-4.72a30.2,30.2,0,0,0-8.79-21.21ZM200,492H80V449H200Z"/><path class="cls-1" d="M256,0C173.29,0,106,67.29,106,150s67.29,150,150,150,150-67.29,150-150S338.71,0,256,0Zm0,280A130,130,0,1,1,386,150,130.15,130.15,0,0,1,256,280Z"/><path class="cls-1" d="M325.05,64.37c-26-21-60.08-28.93-93.42-21.75a10,10,0,1,0,4.21,19.55c27.41-5.91,55.35.56,76.64,17.76a90,90,0,1,1-135.85,27.58A10,10,0,0,0,159,98.05a110,110,0,1,0,166-33.68Z"/></g></g></svg>