<svg xmlns="http://www.w3.org/2000/svg" viewBox="0 0 512 512"><defs><style>.cls-1{fill:#9eb4b9;}</style></defs><title>bnf-item-2</title><g id="Слой_2" data-name="Слой 2"><g id="Layer_1" data-name="Layer 1"><g id="_Группа_" data-name="&lt;Группа&gt;"><g id="_Группа_2" data-name="&lt;Группа&gt;"><g id="_Группа_3" data-name="&lt;Группа&gt;"><path id="_Контур_" data-name="&lt;Контур&gt;" class="cls-1" d="M457.37,97.94h15.82a10,10,0,1,0,0-20h-38a10,10,0,0,0-10,10v38a10,10,0,1,0,20,0v-11A235.25,235.25,0,0,1,492,256c0,130.14-105.87,236-236,236S20,386.14,20,256,125.86,20,256,20a239.57,239.57,0,0,1,28.79,1.74,10,10,0,1,0,2.41-19.84A259.64,259.64,0,0,0,256,0,256,256,0,0,0,75,437,256,256,0,0,0,457.37,97.94Z"/><path id="_Контур_2" data-name="&lt;Контур&gt;" class="cls-1" d="M108.4,150.91A10,10,0,0,0,94.61,154,190.91,190.91,0,0,0,391,391c74.42-74.42,74.42-195.52,0-269.94A190.95,190.95,0,0,0,154.34,94.41,10,10,0,1,0,165,111.31c67.89-42.79,155-33,211.84,23.85,66.63,66.63,66.63,175,0,241.67s-175,66.63-241.67,0c-56.05-56.05-66-145.27-23.67-212.13A10,10,0,0,0,108.4,150.91Z"/><path id="_Контур_3" data-name="&lt;Контур&gt;" class="cls-1" d="M385.92,266.16h12.32a10,10,0,1,0,0-20H385.92a10,10,0,0,0,0,20Z"/><path id="_Контур_4" data-name="&lt;Контур&gt;" class="cls-1" d="M103.77,255.84a10,10,0,0,0,10,10h12.32a10,10,0,0,0,0-20H113.76A10,10,0,0,0,103.77,255.84Z"/><path id="_Контур_5" data-name="&lt;Контур&gt;" class="cls-1" d="M266.16,126.08V113.76a10,10,0,0,0-20,0v12.32a10,10,0,0,0,20,0Z"/><path id="_Контур_6" data-name="&lt;Контур&gt;" class="cls-1" d="M245.84,385.92v12.32a10,10,0,1,0,20,0V385.92a10,10,0,1,0-20,0Z"/><path id="_Составной_контур_" data-name="&lt;Составной контур&gt;" class="cls-1" d="M205.91,191.78a10,10,0,0,0-14.13,14.13l33.87,33.87a34.43,34.43,0,1,0,60.71,0l68.34-68.34a10,10,0,0,0-14.13-14.13l-68.34,68.34a34.35,34.35,0,0,0-32.44,0ZM270.44,256A14.44,14.44,0,1,1,256,241.56,14.46,14.46,0,0,1,270.44,256Z"/><path id="_Контур_7" data-name="&lt;Контур&gt;" class="cls-1" d="M135.16,135.16a10,10,0,1,0-7.07,2.93A10,10,0,0,0,135.16,135.16Z"/><path id="_Контур_8" data-name="&lt;Контур&gt;" class="cls-1" d="M325.22,29.86a10,10,0,1,0-7.06-2.93A10,10,0,0,0,325.22,29.86Z"/></g></g></g></g></g></svg>