<svg xmlns="http://www.w3.org/2000/svg" viewBox="0 0 512 512"><defs><style>.cls-1{fill:#9eb4b9;}</style></defs><title>bnf-item-3</title><g id="Слой_2" data-name="Слой 2"><g id="Capa_1" data-name="Capa 1"><circle class="cls-1" cx="216" cy="462" r="10"/><circle class="cls-1" cx="296" cy="462" r="10"/><circle class="cls-1" cx="256" cy="462" r="10"/><path class="cls-1" d="M507.26,383.49a10,10,0,0,0-9.73-.44L482,390.82l-15.53-7.76A10,10,0,0,0,452,392v40H432V392a10,10,0,0,0-14.47-8.94L402,390.82l-15.53-7.76A10,10,0,0,0,372,392v40H352V372a10,10,0,0,0-13.29-9.44L326,367V260a9.88,9.88,0,0,0-.52-3.16l0-.09L273.4,104.9l7.67,4a10,10,0,0,0,14.45-10.59L290.76,71l20.17-19.37a10,10,0,0,0-5.51-17.11l-28-4L264.94,5.53a10,10,0,0,0-17.88,0L234.57,30.47l-28,4a10,10,0,0,0-5.51,17.11L221.24,71l-4.75,27.32a10,10,0,0,0,14.45,10.59l7.67-4L186.54,256.76l0,.09A10,10,0,0,0,186,260V367l-12.71-4.43A10,10,0,0,0,160,372v60H140V392a10,10,0,0,0-14.47-8.94L110,390.82l-15.53-7.76A10,10,0,0,0,80,392v40H60V392a10,10,0,0,0-14.47-8.94L30,390.82l-15.53-7.76A10,10,0,0,0,0,392V502a10,10,0,0,0,10,10H502a10,10,0,0,0,10-10V392a10,10,0,0,0-4.74-8.51ZM472,408.18l5.53,2.76a10,10,0,0,0,8.94,0l5.53-2.76V432H472Zm-80,0,5.53,2.76a10,10,0,0,0,8.94,0l5.53-2.76V432H392ZM306,270v98.85l-18-6.29a10,10,0,0,0-6.59,0L256,371.41l-25.37-8.85a10,10,0,0,0-6.59,0l-18,6.29V270ZM229.71,51.37l12.88-1.84a10,10,0,0,0,7.52-5.42L256,32.34l5.89,11.77a10,10,0,0,0,7.52,5.42l12.88,1.84-9.22,8.86a10,10,0,0,0-2.92,8.93l2.21,12.69L260.6,75.75a10,10,0,0,0-9.2,0l-11.75,6.09,2.21-12.69a10,10,0,0,0-2.92-8.92ZM256,115.83,302,250H266V218a10,10,0,0,0-20,0v32H210ZM100,408.18l5.53,2.76a10,10,0,0,0,8.94,0l5.53-2.76V432H100Zm-80,0,5.53,2.76a10,10,0,0,0,8.94,0L40,408.18V432H20ZM20,452H160v40H20Zm160-20h36a10,10,0,0,0,0-20H180V386.08l15.37,5.36a10,10,0,0,0,6.59,0l25.37-8.85,25.37,8.85a10,10,0,0,0,6.59,0l25.37-8.85L310,391.44a10,10,0,0,0,6.59,0L332,386.08V412H296a10,10,0,0,0,0,20h36v60H180Zm312,60H352V452H492Z"/><path class="cls-1" d="M256,412a10,10,0,1,0,10,10A10,10,0,0,0,256,412Z"/><path class="cls-1" d="M256,350a30,30,0,1,0-30-30A30,30,0,0,0,256,350Zm0-40a10,10,0,1,1-10,10A10,10,0,0,1,256,310Z"/></g></g></svg>