<svg xmlns="http://www.w3.org/2000/svg" viewBox="0 0 496 496"><defs><style>.cls-1{fill:#95b5bb;}</style></defs><title>contract-item-img-2</title><g id="Слой_2" data-name="Слой 2"><g id="Слой_1-2" data-name="Слой 1"><path class="cls-1" d="M208,104A104,104,0,1,0,104,208,104.12,104.12,0,0,0,208,104ZM16,104a88,88,0,1,1,88,88A88.1,88.1,0,0,1,16,104Z"/><path class="cls-1" d="M104,80a8,8,0,0,1,8,8h16a24,24,0,0,0-16-22.53V56H96v9.47A23.94,23.94,0,0,0,104,112a8,8,0,1,1-8,8H80a24,24,0,0,0,16,22.53V152h16v-9.47A23.94,23.94,0,0,0,104,96a8,8,0,0,1,0-16Z"/><path class="cls-1" d="M104,48a56.06,56.06,0,0,1,56,56,55.43,55.43,0,0,1-11.8,34.3l12.63,9.82A71.31,71.31,0,0,0,176,104a72.09,72.09,0,0,0-72-72A71.31,71.31,0,0,0,59.89,47.17L69.7,59.8A55.43,55.43,0,0,1,104,48Z"/><path class="cls-1" d="M148.11,160.83,138.3,148.2A55.43,55.43,0,0,1,104,160a56.06,56.06,0,0,1-56-56A55.43,55.43,0,0,1,59.8,69.7L47.17,59.89A71.31,71.31,0,0,0,32,104a72.09,72.09,0,0,0,72,72A71.31,71.31,0,0,0,148.11,160.83Z"/><path class="cls-1" d="M448,144H432V80H416V48H376V0H360V48H320V80H304v64H288V256H272V208H256V176H232V136H216v40H192v32H176v48H144V480H128v16H464V480H448ZM336,64h64V80H336ZM320,96h96v48H400V112H384v32H352V112H336v32H320Zm112,64V480H408V400H328v80H304V160ZM392,480H344V416h48ZM208,192h32v16H208Zm-16,32h64v32H232V240H216v16H192Zm-32,48H288V480H272V288H256V480H232V288H216V480H192V288H176V480H160Z"/><path class="cls-1" d="M320,176h16v16H320Z"/><path class="cls-1" d="M360,176h16v16H360Z"/><path class="cls-1" d="M400,176h16v16H400Z"/><path class="cls-1" d="M320,224h16v16H320Z"/><path class="cls-1" d="M360,224h16v16H360Z"/><path class="cls-1" d="M400,224h16v16H400Z"/><path class="cls-1" d="M320,272h16v16H320Z"/><path class="cls-1" d="M360,272h16v16H360Z"/><path class="cls-1" d="M400,272h16v16H400Z"/><path class="cls-1" d="M320,320h16v16H320Z"/><path class="cls-1" d="M360,320h16v16H360Z"/><path class="cls-1" d="M400,320h16v16H400Z"/><path class="cls-1" d="M320,368h16v16H320Z"/><path class="cls-1" d="M360,368h16v16H360Z"/><path class="cls-1" d="M400,368h16v16H400Z"/><path class="cls-1" d="M0,240H16v16H0Z"/><path class="cls-1" d="M0,272H16v96H0Z"/><path class="cls-1" d="M48,296H64v16H48Z"/><path class="cls-1" d="M48,328H64v96H48Z"/><path class="cls-1" d="M96,240h16v16H96Z"/><path class="cls-1" d="M96,272h16v96H96Z"/><path class="cls-1" d="M480,480h16v16H480Z"/><path class="cls-1" d="M96,480h16v16H96Z"/></g></g></svg>