<svg xmlns="http://www.w3.org/2000/svg" viewBox="0 0 50 60"><defs><style>.cls-1{fill:#95b5bb;}</style></defs><title>contract-item-img-1</title><g id="Слой_2" data-name="Слой 2"><g id="Capa_1" data-name="Capa 1"><circle class="cls-1" cx="25" cy="26" r="1"/><circle class="cls-1" cx="28" cy="24" r="1"/><circle class="cls-1" cx="22" cy="24" r="1"/><circle class="cls-1" cx="19" cy="22" r="1"/><circle class="cls-1" cx="31" cy="22" r="1"/><circle class="cls-1" cx="34" cy="20" r="1"/><circle class="cls-1" cx="16" cy="20" r="1"/><circle class="cls-1" cx="25" cy="22" r="1"/><circle class="cls-1" cx="25" cy="34" r="1"/><circle class="cls-1" cx="25" cy="37" r="1"/><circle class="cls-1" cx="25" cy="40" r="1"/><circle class="cls-1" cx="25" cy="43" r="1"/><circle class="cls-1" cx="25" cy="46" r="1"/><circle class="cls-1" cx="25" cy="49" r="1"/><path class="cls-1" d="M49,58H46V54H41V43.78a8,8,0,0,0-3.59-6.71L26.8,30l10.61-7.07A8,8,0,0,0,41,16.22V6h5V2h3a1,1,0,0,0,0-2H1A1,1,0,0,0,1,2H4V6H9V16.22a8,8,0,0,0,3.59,6.71L23.2,30,12.59,37.07A8,8,0,0,0,9,43.78V54H4v4H1a1,1,0,0,0,0,2H49a1,1,0,0,0,0-2ZM6,4V2H44V4H6Zm7.7,17.26a6.05,6.05,0,0,1-2.7-5V6H39V16.22a6.05,6.05,0,0,1-2.7,5L25,28.8ZM11,43.78a6.05,6.05,0,0,1,2.7-5L25,31.2l11.3,7.53a6.05,6.05,0,0,1,2.7,5V54H11ZM6,56H44v2H6Z"/></g></g></svg>