<svg xmlns="http://www.w3.org/2000/svg" viewBox="0 0 336 496"><defs><style>.cls-1{fill:#95b5bb;}</style></defs><title>contract-item-img-3</title><g id="Слой_2" data-name="Слой 2"><g id="Слой_1-2" data-name="Слой 1"><path class="cls-1" d="M336,32H231.19A40.07,40.07,0,0,0,192,0H144a40.07,40.07,0,0,0-39.19,32H0V456H113.18a23.61,23.61,0,0,0,1.51,6A29.17,29.17,0,0,0,138,485.31a23.56,23.56,0,0,0,7.17,1.7,23.52,23.52,0,0,0,6.28,3.86,29.13,29.13,0,0,0,33,0,23.73,23.73,0,0,0,6.28-3.86,23.8,23.8,0,0,0,7.17-1.7A29.17,29.17,0,0,0,221.32,462a23.45,23.45,0,0,0,1.51-6H336ZM120,80V40a24,24,0,0,1,24-24h48a24,24,0,0,1,24,24V80h24.64A56,56,0,0,0,288,127.36V360.64A56,56,0,0,0,240.64,408H222.82a23.61,23.61,0,0,0-1.51-6A29.17,29.17,0,0,0,198,378.69a23.74,23.74,0,0,0-7.17-1.7,23.52,23.52,0,0,0-6.28-3.86,29.13,29.13,0,0,0-33,0,23.73,23.73,0,0,0-6.28,3.86,23.8,23.8,0,0,0-7.17,1.7A29.17,29.17,0,0,0,114.68,402a23.45,23.45,0,0,0-1.51,6H95.36A56,56,0,0,0,48,360.64V127.36A56,56,0,0,0,95.36,80Zm168,31.19A40.12,40.12,0,0,1,256.81,80H288Zm0,265.62V408H256.81A40.12,40.12,0,0,1,288,376.81ZM212.22,442a8.65,8.65,0,0,1-2.53,3.56l-2.77,2.53.17,3.75a8.65,8.65,0,0,1-.73,4.3l-.68,1.55-.05.59-16-16a24,24,0,0,0,.93-2.28h22.63l-.38.41Zm-81.81,16.24,0-.57-.76-1.52a8.65,8.65,0,0,1-.73-4.3l.17-3.75-2.77-2.53a8.55,8.55,0,0,1-2.53-3.56l-.62-1.58-.37-.46h22.69a24.42,24.42,0,0,0,.93,2.28ZM190.53,424a24.42,24.42,0,0,0-.93-2.28l16-16,0,.57.76,1.52a8.65,8.65,0,0,1,.73,4.3l-.17,3.75,2.77,2.53a8.6,8.6,0,0,1,2.53,3.56l.62,1.58.37.45ZM168,440a8,8,0,1,1,8-8A8,8,0,0,1,168,440Zm10.28-29.59a24,24,0,0,0-2.28-.93V386.86l.41.38,1.62.54a8.65,8.65,0,0,1,3.56,2.53l2.53,2.77,3.75-.17a8.76,8.76,0,0,1,4.3.73l1.55.68.59.05ZM160,409.47a24.42,24.42,0,0,0-2.28.93l-16-16,.57,0,1.52-.76a8.72,8.72,0,0,1,4.3-.73l3.75.17,2.53-2.77a8.6,8.6,0,0,1,3.56-2.53l1.58-.62.45-.37Zm-36.77,14.11.54-1.62a8.65,8.65,0,0,1,2.53-3.56l2.77-2.53-.17-3.75a8.65,8.65,0,0,1,.73-4.3l.68-1.55.05-.59,16,16a23,23,0,0,0-.93,2.28H122.85ZM48,376.81A40.12,40.12,0,0,1,79.19,408H48Zm0-265.62V80H79.19A40.12,40.12,0,0,1,48,111.19ZM16,48h88V64H32V424h73.19a27.45,27.45,0,0,0,0,16H16ZM158,476.22a8.58,8.58,0,0,1-3.55-2.53l-2.54-2.79-3.76.18a8.62,8.62,0,0,1-4.3-.72l-1.55-.68-.59-.05,16-16c.75.35,1.5.64,2.28.93v22.63l-.41-.38Zm34.21-5.86a8.75,8.75,0,0,1-4.3.72l-3.76-.18-2.54,2.79a8.58,8.58,0,0,1-3.55,2.53l-1.58.62-.45.37V454.53a24.42,24.42,0,0,0,2.28-.93l16,16-.57,0ZM320,440H230.81a27.45,27.45,0,0,0,0-16H304V64H232V48h88Z"/><path class="cls-1" d="M200,32H136V80h64ZM184,64H152V48h32Z"/><path class="cls-1" d="M80,216H256V120H80Zm16-80H240v64H96Z"/><path class="cls-1" d="M80,232H256v16H80Z"/><path class="cls-1" d="M80,264H256v16H80Z"/><path class="cls-1" d="M80,296h80v16H80Z"/><path class="cls-1" d="M176,296h80v16H176Z"/><path class="cls-1" d="M80,328h80v16H80Z"/><path class="cls-1" d="M176,328h80v16H176Z"/></g></g></svg>