<svg xmlns="http://www.w3.org/2000/svg" viewBox="0 0 382.6 477"><defs><style>.cls-1{fill:#ff99a5;}</style></defs><title>loc-icon</title><g id="Слой_2" data-name="Слой 2"><g id="Capa_1" data-name="Capa 1"><path class="cls-1" d="M191.2,0C85.8,0,0,85.8,0,191.2a188.19,188.19,0,0,0,3.4,35.9c.1.7.5,2.8,1.3,6.4a188.3,188.3,0,0,0,12.8,37.7c20.6,48.5,65.9,123,165.3,202.8a13.54,13.54,0,0,0,17,0c99.3-79.8,144.7-154.3,165.3-202.8a186.19,186.19,0,0,0,12.8-37.7c.8-3.6,1.2-5.7,1.3-6.4a196.63,196.63,0,0,0,3.4-35.9C382.4,85.8,296.6,0,191.2,0ZM352.4,222.4c0,.2-.1.4-.1.6-.1.5-.4,2-.9,4.3v.2a158.75,158.75,0,0,1-11.1,32.6c-.1.1-.1.3-.2.4-18.7,44.3-59.7,111.9-148.9,185.6C102,372.4,61,304.8,42.3,260.5c-.1-.1-.1-.3-.2-.4A169.35,169.35,0,0,1,31,227.5v-.2c-.6-2.3-.8-3.8-.9-4.3,0-.2-.1-.4-.1-.7a163.31,163.31,0,0,1-3-31.2c0-90.5,73.7-164.2,164.2-164.2s164.2,73.7,164.2,164.2A162.8,162.8,0,0,1,352.4,222.4Z"/><path class="cls-1" d="M191.2,71.9c-66.9,0-121.4,54.5-121.4,121.4s54.5,121.4,121.4,121.4,121.4-54.5,121.4-121.4S258.1,71.9,191.2,71.9Zm0,215.8a94.4,94.4,0,1,1,94.4-94.4A94.51,94.51,0,0,1,191.2,287.7Z"/></g></g></svg>