<svg xmlns="http://www.w3.org/2000/svg" xmlns:xlink="http://www.w3.org/1999/xlink" viewBox="0 0 330.55 62.93"><defs><style>.cls-1{fill:none;}.cls-2{clip-path:url(#clip-path);}.cls-3{fill:#ff4358;}</style><clipPath id="clip-path" transform="translate(0 0)"><rect class="cls-1" width="330.55" height="62.93"/></clipPath></defs><title>logo</title><g id="Слой_2" data-name="Слой 2"><g id="Слой_1-2" data-name="Слой 1"><g class="cls-2"><path class="cls-3" d="M30.24,51.43H11.58V10.28H0V62H39.53s0-10.58-9.29-10.58" transform="translate(0 0)"/><path class="cls-3" d="M80.09,42.32c0,12.12-9.19,20.61-21.54,20.61C45.89,62.93,37,54.75,37,42.32c0-12,8.88-20.61,21.54-20.61S80.09,30,80.09,42.32M48,42.32c0,6.64,4.17,11,10.58,11,6.56,0,10.5-4.32,10.5-11S65,31.43,58.55,31.43C52,31.43,48,35.84,48,42.32" transform="translate(0 0)"/><path class="cls-3" d="M209,45.87c.85,4.25,4.48,7.41,11,7.41a25.58,25.58,0,0,0,9.29-1.78c4.77-1.84,8.23,6.11,8.23,6.11-5.33,3.78-11,5.33-18.14,5.33-13.82,0-21.46-8.26-21.46-20.54,0-11.58,8.42-20.69,21.46-20.69,11.2,0,19,7.49,19,18.76a24,24,0,0,1-.69,5.4Zm18.14-8.1c-.15-3.94-2.7-6.64-8-6.64s-8.49,2.55-9.8,6.64Z" transform="translate(0 0)"/><path class="cls-3" d="M305.73,23.73a41.52,41.52,0,0,0-11.85,11,21.79,21.79,0,0,0,36.67-2.42,41.13,41.13,0,0,1-24.82-8.6" transform="translate(0 0)"/><path class="cls-3" d="M330.55,11.31a21.82,21.82,0,1,0-36.8,23.28,41.33,41.33,0,0,1,36.8-23.28" transform="translate(0 0)"/><path class="cls-3" d="M105.71,21.71a20.72,20.72,0,0,0-2.21.16c-7.73,1.25-8.44,13-8.44,13a12.78,12.78,0,0,1,9.19-3.47c5.48,0,9.5,3.78,9.5,10.42,0,7.41-5.25,11.43-11.74,11.43a22.54,22.54,0,0,1-6.95-1V7.42H84v52.5a49.83,49.83,0,0,0,17.68,3c12.74,0,23.16-7.87,23.16-21,0-13.51-8.18-20.23-19.15-20.23" transform="translate(0 0)"/><path class="cls-3" d="M190.22,52.28a15.09,15.09,0,0,1-3.88.61C183,52.9,181,51.12,181,47.8l0-16.64h11.82l1.19-9.46H181l.45-8.88-10.5-.54-1.07,9.42H145.37c-11.27,0-17.68,5.1-17.68,12.89,0,7.26,4.63,11.12,12.28,12l8.88,1c3,.31,4.25,1.08,4.25,2.86,0,2.16-2.55,3.24-8.41,3.24a28.53,28.53,0,0,1-8.37-1.19h0l-.06,0-.56-.17c-1.59-.39-6-.72-9.31,5.85,5.71,3.55,11.27,4.79,18.07,4.79,12,0,19.38-4.79,19.38-13.13,0-7.57-5.41-11-14.28-12.12L142,36.84c-2.39-.31-3.55-1.16-3.55-2.7,0-1.93,2.32-3.09,6.72-3.09l24.8.12,0,16.48c0,10.19,5.17,15.29,14.21,15.29a21.83,21.83,0,0,0,12.58-3.55s-2.26-8.22-6.54-7.1" transform="translate(0 0)"/><path class="cls-3" d="M267.51,32.12h0a12.71,12.71,0,0,1,1.92.51c5.25.48,10.32-6.22,10.32-6.22a18.42,18.42,0,0,0-12.51-4.71c-6.64,0-11.2,2.7-13.67,7.26l-.7-7.26H244V62h11V39.31c1.54-4.32,5.17-7.41,9.81-7.41a15.38,15.38,0,0,1,2.63.22Z" transform="translate(0 0)"/></g></g></g></svg>